# This file uses centimeters as units for non-parametric coordinates.

mtllib Number4.mtl
g shellDeformer1Set tweakSet1 tweakSet2 vectorAdjust1Set
v 0.163073 0.754318 0.128891
v 0.330392 0.754318 0.128891
v 0.330392 0.375363 0.128891
v 0.509469 0.375363 0.128891
v 0.509469 0.229750 0.128891
v 0.330392 0.229750 0.128891
v 0.330392 -0.584235 0.128891
v 0.163073 -0.584235 0.128891
v -0.439276 0.240603 0.128891
v -0.439276 0.375363 0.128891
v 0.163073 0.375363 0.128891
v -0.264481 0.229750 0.128891
v 0.174831 -0.365702 0.128891
v 0.174831 0.229750 0.128891
v 0.163073 0.754318 0.064905
v 0.330392 0.754318 0.064905
v 0.330392 0.375363 0.064905
v 0.509469 0.375363 0.064905
v 0.509469 0.229750 0.064905
v 0.330392 0.229750 0.064905
v 0.330392 -0.584235 0.064905
v 0.163073 -0.584235 0.064905
v -0.439276 0.240603 0.064905
v -0.439276 0.375363 0.064905
v 0.163073 0.375363 0.064905
v -0.264481 0.229750 0.064905
v 0.174831 -0.365702 0.064905
v 0.174831 0.229750 0.064905
v 0.163073 0.754318 0.000920
v 0.330392 0.754318 0.000920
g default
v 0.330392 0.375363 0.000920
v 0.509469 0.375363 0.000920
v 0.509469 0.229750 0.000920
v 0.330392 0.229750 0.000920
v 0.330392 -0.584235 0.000920
v 0.163073 -0.584235 0.000920
v -0.439276 0.240603 0.000920
v -0.439276 0.375363 0.000920
v 0.163073 0.375363 0.000920
v -0.264481 0.229750 0.000920
v 0.174831 -0.365702 0.000920
v 0.174831 0.229750 0.000920
v 0.163073 0.754318 -0.063066
v 0.330392 0.754318 -0.063066
v 0.330392 0.375363 -0.063066
v 0.509469 0.375363 -0.063066
v 0.509469 0.229750 -0.063066
v 0.330392 0.229750 -0.063066
v 0.330392 -0.584235 -0.063066
v 0.163073 -0.584235 -0.063066
v -0.439276 0.240603 -0.063066
v -0.439276 0.375363 -0.063066
v 0.163073 0.375363 -0.063066
v -0.264481 0.229750 -0.063066
v 0.174831 -0.365702 -0.063066
v 0.174831 0.229750 -0.063066
v 0.163073 0.754318 -0.127051
v 0.330392 0.754318 -0.127051
v 0.330392 0.375363 -0.127051
v 0.509469 0.375363 -0.127051
v 0.509469 0.229750 -0.127051
v 0.330392 0.229750 -0.127051
v 0.330392 -0.584235 -0.127051
v 0.163073 -0.584235 -0.127051
v -0.439276 0.240603 -0.127051
v -0.439276 0.375363 -0.127051
v 0.163073 0.375363 -0.127051
v -0.264481 0.229750 -0.127051
v 0.174831 -0.365702 -0.127051
v 0.174831 0.229750 -0.127051
vt 0.230236 0.583668
vt 0.230236 0.747295
vt 0.202608 0.747295
vt 0.202608 0.583668
vt 0.174980 0.747295
vt 0.174980 0.583668
vt 0.147352 0.747295
vt 0.147352 0.583668
vt 0.119724 0.747295
vt 0.119724 0.583668
vt 0.163238 0.751005
vt 0.226111 0.751005
vt 0.226111 0.778633
vt 0.163238 0.778633
vt 0.226111 0.806261
vt 0.163238 0.806261
vt 0.226111 0.833889
vt 0.163238 0.833889
vt 0.226111 0.861517
vt 0.163238 0.861517
vt 0.811304 0.583668
vt 0.811304 0.935135
vt 0.783676 0.935135
vt 0.783676 0.583668
vt 0.756048 0.935135
vt 0.756048 0.583668
vt 0.728420 0.935135
vt 0.728420 0.583668
vt 0.700792 0.935135
vt 0.700792 0.583668
vt 0.817006 0.641856
vt 0.817006 0.583668
vt 0.844634 0.583668
vt 0.844634 0.641856
vt 0.872262 0.583668
vt 0.872262 0.641856
vt 0.817006 0.998008
vt 0.844634 0.998008
vt 0.899890 0.583668
vt 0.899890 0.641856
vt 0.872262 0.998008
vt 0.927518 0.583668
vt 0.927518 0.641856
vt 0.899890 0.998008
vt 0.927518 0.998008
vt 0.003510 0.747295
vt 0.003510 0.583668
vt 0.031138 0.583668
vt 0.031138 0.747295
vt 0.058766 0.583668
vt 0.058766 0.747295
vt 0.086394 0.583668
vt 0.086394 0.747295
vt 0.114022 0.583668
vt 0.114022 0.747295
vt 0.352151 0.840776
vt 0.352151 0.583668
vt 0.379779 0.583668
vt 0.379779 0.840776
vt 0.407407 0.583668
vt 0.407407 0.840776
vt 0.435035 0.583668
vt 0.435035 0.840776
vt 0.462663 0.583668
vt 0.462663 0.840776
vt 0.001851 0.751005
vt 0.074097 0.751005
vt 0.074097 0.778633
vt 0.001851 0.778633
vt 0.074097 0.806261
vt 0.001851 0.806261
vt 0.074097 0.833889
vt 0.001851 0.833889
vt 0.074097 0.861517
vt 0.001851 0.861517
vt 0.079918 0.751005
vt 0.157241 0.751005
vt 0.157241 0.778633
vt 0.079918 0.778633
vt 0.157241 0.806261
vt 0.079918 0.806261
vt 0.157241 0.833889
vt 0.079918 0.833889
vt 0.157241 0.861517
vt 0.079918 0.861517
vt 0.309390 0.887578
vt 0.232067 0.887578
vt 0.232067 0.859950
vt 0.309390 0.859950
vt 0.232067 0.832322
vt 0.309390 0.832322
vt 0.232067 0.804694
vt 0.309390 0.804694
vt 0.232067 0.777066
vt 0.309390 0.777066
vt 0.387633 0.954997
vt 0.315387 0.954997
vt 0.315387 0.927369
vt 0.387633 0.927369
vt 0.315387 0.899741
vt 0.387633 0.899741
vt 0.315387 0.872113
vt 0.387633 0.872113
vt 0.315387 0.844485
vt 0.387633 0.844485
vt 0.584579 0.843753
vt 0.584579 0.583668
vt 0.612207 0.583668
vt 0.612207 0.843753
vt 0.639835 0.583668
vt 0.639835 0.843753
vt 0.667463 0.583668
vt 0.667463 0.843753
vt 0.695091 0.583668
vt 0.695091 0.843753
vt 0.346449 0.583668
vt 0.346449 0.773356
vt 0.318821 0.773356
vt 0.318821 0.583668
vt 0.291193 0.773356
vt 0.291193 0.583668
vt 0.263566 0.773356
vt 0.263566 0.583668
vt 0.235938 0.773356
vt 0.235938 0.583668
vt 0.261936 0.416332
vt 0.001851 0.416332
vt 0.001851 0.358145
vt 0.261936 0.001992
vt 0.334182 0.001992
vt 0.334182 0.353458
vt 0.411505 0.353458
vt 0.411505 0.416332
vt 0.334182 0.416332
vt 0.334182 0.579959
vt 0.261936 0.579959
vt 0.267013 0.353458
vt 0.267013 0.096351
vt 0.077325 0.353458
vt 0.678716 0.001992
vt 0.750962 0.001992
vt 0.750962 0.165619
vt 0.828284 0.165619
vt 0.828284 0.228493
vt 0.750962 0.228493
vt 0.750962 0.579959
vt 0.678716 0.579959
vt 0.418631 0.223806
vt 0.418631 0.165619
vt 0.678716 0.165619
vt 0.494104 0.228493
vt 0.683792 0.485600
vt 0.683792 0.228493
vt 0.578877 0.583668
vt 0.578877 0.840776
vt 0.551249 0.840776
vt 0.551249 0.583668
vt 0.523621 0.840776
vt 0.523621 0.583668
vt 0.495993 0.840776
vt 0.495993 0.583668
vt 0.468365 0.840776
vt 0.468365 0.583668
vn 0.000000 -0.000000 1.000000
vn 0.000000 -0.000000 1.000000
vn 0.000000 -0.000000 1.000000
vn 0.000000 -0.000000 1.000000
vn 0.000000 -0.000000 1.000000
vn 0.000000 -0.000000 1.000000
vn 0.000000 -0.000000 1.000000
vn 0.000000 -0.000000 1.000000
vn 0.000000 -0.000000 1.000000
vn 0.000000 -0.000000 1.000000
vn 0.000000 -0.000000 1.000000
vn 0.000000 -0.000000 1.000000
vn 0.000000 -0.000000 1.000000
vn 0.000000 -0.000000 1.000000
vn 0.000000 1.000000 -0.000000
vn 0.000000 1.000000 -0.000000
vn 0.000000 1.000000 -0.000000
vn 0.000000 1.000000 -0.000000
vn 1.000000 -0.000000 -0.000000
vn 1.000000 -0.000000 -0.000000
vn 1.000000 -0.000000 -0.000000
vn 1.000000 -0.000000 -0.000000
vn 0.000000 1.000000 -0.000000
vn 0.000000 1.000000 -0.000000
vn 0.000000 1.000000 -0.000000
vn 0.000000 1.000000 -0.000000
vn 1.000000 -0.000000 -0.000000
vn 1.000000 -0.000000 -0.000000
vn 1.000000 -0.000000 -0.000000
vn 1.000000 -0.000000 -0.000000
vn -0.000000 -1.000000 0.000000
vn -0.000000 -1.000000 0.000000
vn -0.000000 -1.000000 0.000000
vn -0.000000 -1.000000 0.000000
vn 1.000000 -0.000000 -0.000000
vn 1.000000 -0.000000 -0.000000
vn 1.000000 -0.000000 -0.000000
vn 1.000000 -0.000000 -0.000000
vn -0.000000 -1.000000 0.000000
vn -0.000000 -1.000000 0.000000
vn -0.000000 -1.000000 0.000000
vn -0.000000 -1.000000 0.000000
vn -0.807586 -0.589750 0.000000
vn -0.807586 -0.589750 0.000000
vn -0.807586 -0.589750 0.000000
vn -0.807586 -0.589750 0.000000
vn -1.000000 0.000000 0.000000
vn -1.000000 0.000000 0.000000
vn -1.000000 0.000000 0.000000
vn -1.000000 0.000000 0.000000
vn 0.000000 1.000000 -0.000000
vn 0.000000 1.000000 -0.000000
vn 0.000000 1.000000 -0.000000
vn 0.000000 1.000000 -0.000000
vn -1.000000 0.000000 0.000000
vn -1.000000 0.000000 0.000000
vn -1.000000 0.000000 0.000000
vn -1.000000 0.000000 0.000000
vn 0.804696 0.593687 -0.000000
vn 0.804696 0.593687 -0.000000
vn 0.804696 0.593687 -0.000000
vn 0.804696 0.593687 -0.000000
vn -1.000000 0.000000 0.000000
vn -1.000000 0.000000 0.000000
vn -1.000000 0.000000 0.000000
vn -1.000000 0.000000 0.000000
vn -0.000000 -1.000000 0.000000
vn -0.000000 -1.000000 0.000000
vn -0.000000 -1.000000 0.000000
vn -0.000000 -1.000000 0.000000
vn 0.000000 1.000000 -0.000000
vn 0.000000 1.000000 -0.000000
vn 1.000000 -0.000000 -0.000000
vn 1.000000 -0.000000 -0.000000
vn 0.000000 1.000000 -0.000000
vn 0.000000 1.000000 -0.000000
vn 1.000000 -0.000000 -0.000000
vn 1.000000 -0.000000 -0.000000
vn -0.000000 -1.000000 0.000000
vn -0.000000 -1.000000 0.000000
vn 1.000000 -0.000000 -0.000000
vn 1.000000 -0.000000 -0.000000
vn -0.000000 -1.000000 0.000000
vn -0.000000 -1.000000 0.000000
vn -0.807586 -0.589750 0.000000
vn -0.807586 -0.589750 0.000000
vn -1.000000 0.000000 0.000000
vn -1.000000 0.000000 0.000000
vn 0.000000 1.000000 -0.000000
vn 0.000000 1.000000 -0.000000
vn -1.000000 0.000000 0.000000
vn -1.000000 0.000000 0.000000
vn 0.804696 0.593687 -0.000000
vn 0.804696 0.593687 -0.000000
vn -1.000000 0.000000 0.000000
vn -1.000000 0.000000 0.000000
vn -0.000000 -1.000000 0.000000
vn -0.000000 -1.000000 0.000000
vn 0.000000 1.000000 -0.000000
vn 0.000000 1.000000 -0.000000
vn 1.000000 -0.000000 -0.000000
vn 1.000000 -0.000000 -0.000000
vn 0.000000 1.000000 -0.000000
vn 0.000000 1.000000 -0.000000
vn 1.000000 -0.000000 -0.000000
vn 1.000000 -0.000000 -0.000000
vn -0.000000 -1.000000 0.000000
vn -0.000000 -1.000000 0.000000
vn 1.000000 -0.000000 -0.000000
vn 1.000000 -0.000000 -0.000000
vn -0.000000 -1.000000 0.000000
vn -0.000000 -1.000000 0.000000
vn -0.807586 -0.589750 0.000000
vn -0.807586 -0.589750 0.000000
vn -1.000000 0.000000 0.000000
vn -1.000000 0.000000 0.000000
vn 0.000000 1.000000 -0.000000
vn 0.000000 1.000000 -0.000000
vn -1.000000 0.000000 0.000000
vn -1.000000 0.000000 0.000000
vn 0.804696 0.593687 -0.000000
vn 0.804696 0.593687 -0.000000
vn -1.000000 0.000000 0.000000
vn -1.000000 0.000000 0.000000
vn -0.000000 -1.000000 0.000000
vn -0.000000 -1.000000 0.000000
vn 0.000000 1.000000 -0.000000
vn 0.000000 1.000000 -0.000000
vn 1.000000 -0.000000 -0.000000
vn 1.000000 -0.000000 -0.000000
vn 0.000000 1.000000 -0.000000
vn 0.000000 1.000000 -0.000000
vn 1.000000 -0.000000 -0.000000
vn 1.000000 -0.000000 -0.000000
vn -0.000000 -1.000000 0.000000
vn -0.000000 -1.000000 0.000000
vn 1.000000 -0.000000 -0.000000
vn 1.000000 -0.000000 -0.000000
vn -0.000000 -1.000000 0.000000
vn -0.000000 -1.000000 0.000000
vn -0.807586 -0.589750 0.000000
vn -0.807586 -0.589750 0.000000
vn -1.000000 0.000000 0.000000
vn -1.000000 0.000000 0.000000
vn 0.000000 1.000000 -0.000000
vn 0.000000 1.000000 -0.000000
vn -1.000000 0.000000 0.000000
vn -1.000000 0.000000 0.000000
vn 0.804696 0.593687 -0.000000
vn 0.804696 0.593687 -0.000000
vn -1.000000 0.000000 0.000000
vn -1.000000 0.000000 0.000000
vn -0.000000 -1.000000 0.000000
vn -0.000000 -1.000000 0.000000
vn -0.000000 0.000000 -1.000000
vn -0.000000 0.000000 -1.000000
vn -0.000000 0.000000 -1.000000
vn -0.000000 0.000000 -1.000000
vn -0.000000 0.000000 -1.000000
vn -0.000000 0.000000 -1.000000
vn 0.000000 -0.000000 -1.000000
vn -0.000000 0.000000 -1.000000
vn 0.000000 -0.000000 -1.000000
vn -0.000000 0.000000 -1.000000
vn -0.000000 0.000000 -1.000000
vn 0.000000 -0.000000 -1.000000
vn -0.000000 0.000000 -1.000000
vn -0.000000 0.000000 -1.000000
s 1
g typeMesh1
usemtl typeBlinnSG
f 10/127/1 9/128/2 11/126/3
f 9/128/2 12/139/4 11/126/3
f 12/139/4 14/137/5 11/126/3
f 9/128/2 8/129/6 12/139/4
f 12/139/4 8/129/6 13/138/7
f 8/129/6 7/130/8 13/138/7
f 7/130/8 6/131/9 13/138/7
f 13/138/7 6/131/9 14/137/5
f 5/132/10 4/133/11 6/131/9
f 4/133/11 3/134/12 6/131/9
f 6/131/9 3/134/12 14/137/5
f 14/137/5 3/134/12 11/126/3
f 11/126/3 3/134/12 1/136/13
f 3/134/12 2/135/14 1/136/13
s 3
f 1/66/15 2/67/16 15/69/17
f 15/69/17 2/67/16 16/68/18
s 4
f 2/1/19 3/2/20 16/4/21
f 16/4/21 3/2/20 17/3/22
s 5
f 3/76/23 4/77/24 17/79/25
f 17/79/25 4/77/24 18/78/26
s 6
f 4/11/27 5/12/28 18/14/29
f 18/14/29 5/12/28 19/13/30
s 7
f 5/86/31 6/87/32 19/89/33
f 19/89/33 6/87/32 20/88/34
s 8
f 6/21/35 7/22/36 20/24/37
f 20/24/37 7/22/36 21/23/38
s 9
f 7/96/39 8/97/40 21/99/41
f 21/99/41 8/97/40 22/98/42
s 10
f 8/37/43 9/31/44 22/38/45
f 22/38/45 9/31/44 23/34/46
s 11
f 9/31/47 10/32/48 23/34/49
f 23/34/49 10/32/48 24/33/50
s 12
f 10/106/51 11/107/52 24/109/53
f 24/109/53 11/107/52 25/108/54
s 13
f 11/46/55 1/47/56 25/49/57
f 25/49/57 1/47/56 15/48/58
s 14
f 12/154/59 13/155/60 26/157/61
f 26/157/61 13/155/60 27/156/62
s 15
f 13/56/63 14/57/64 27/59/65
f 27/59/65 14/57/64 28/58/66
s 16
f 14/116/67 12/117/68 28/119/69
f 28/119/69 12/117/68 26/118/70
s 3
f 15/69/17 16/68/18 29/71/71
f 29/71/71 16/68/18 30/70/72
s 4
f 16/4/21 17/3/22 30/6/73
f 30/6/73 17/3/22 31/5/74
s 5
f 17/79/25 18/78/26 31/81/75
f 31/81/75 18/78/26 32/80/76
s 6
f 18/14/29 19/13/30 32/16/77
f 32/16/77 19/13/30 33/15/78
s 7
f 19/89/33 20/88/34 33/91/79
f 33/91/79 20/88/34 34/90/80
s 8
f 20/24/37 21/23/38 34/26/81
f 34/26/81 21/23/38 35/25/82
s 9
f 21/99/41 22/98/42 35/101/83
f 35/101/83 22/98/42 36/100/84
s 10
f 22/38/45 23/34/46 36/41/85
f 36/41/85 23/34/46 37/36/86
s 11
f 23/34/49 24/33/50 37/36/87
f 37/36/87 24/33/50 38/35/88
s 12
f 24/109/53 25/108/54 38/111/89
f 38/111/89 25/108/54 39/110/90
s 13
f 25/49/57 15/48/58 39/51/91
f 39/51/91 15/48/58 29/50/92
s 14
f 26/157/61 27/156/62 40/159/93
f 40/159/93 27/156/62 41/158/94
s 15
f 27/59/65 28/58/66 41/61/95
f 41/61/95 28/58/66 42/60/96
s 16
f 28/119/69 26/118/70 42/121/97
f 42/121/97 26/118/70 40/120/98
s 3
f 29/71/71 30/70/72 43/73/99
f 43/73/99 30/70/72 44/72/100
s 4
f 30/6/73 31/5/74 44/8/101
f 44/8/101 31/5/74 45/7/102
s 5
f 31/81/75 32/80/76 45/83/103
f 45/83/103 32/80/76 46/82/104
s 6
f 32/16/77 33/15/78 46/18/105
f 46/18/105 33/15/78 47/17/106
s 7
f 33/91/79 34/90/80 47/93/107
f 47/93/107 34/90/80 48/92/108
s 8
f 34/26/81 35/25/82 48/28/109
f 48/28/109 35/25/82 49/27/110
s 9
f 35/101/83 36/100/84 49/103/111
f 49/103/111 36/100/84 50/102/112
s 10
f 36/41/85 37/36/86 50/44/113
f 50/44/113 37/36/86 51/40/114
s 11
f 37/36/87 38/35/88 51/40/115
f 51/40/115 38/35/88 52/39/116
s 12
f 38/111/89 39/110/90 52/113/117
f 52/113/117 39/110/90 53/112/118
s 13
f 39/51/91 29/50/92 53/53/119
f 53/53/119 29/50/92 43/52/120
s 14
f 40/159/93 41/158/94 54/161/121
f 54/161/121 41/158/94 55/160/122
s 15
f 41/61/95 42/60/96 55/63/123
f 55/63/123 42/60/96 56/62/124
s 16
f 42/121/97 40/120/98 56/123/125
f 56/123/125 40/120/98 54/122/126
s 3
f 43/73/99 44/72/100 57/75/127
f 57/75/127 44/72/100 58/74/128
s 4
f 44/8/101 45/7/102 58/10/129
f 58/10/129 45/7/102 59/9/130
s 5
f 45/83/103 46/82/104 59/85/131
f 59/85/131 46/82/104 60/84/132
s 6
f 46/18/105 47/17/106 60/20/133
f 60/20/133 47/17/106 61/19/134
s 7
f 47/93/107 48/92/108 61/95/135
f 61/95/135 48/92/108 62/94/136
s 8
f 48/28/109 49/27/110 62/30/137
f 62/30/137 49/27/110 63/29/138
s 9
f 49/103/111 50/102/112 63/105/139
f 63/105/139 50/102/112 64/104/140
s 10
f 50/44/113 51/40/114 64/45/141
f 64/45/141 51/40/114 65/43/142
s 11
f 51/40/115 52/39/116 65/43/143
f 65/43/143 52/39/116 66/42/144
s 12
f 52/113/117 53/112/118 66/115/145
f 66/115/145 53/112/118 67/114/146
s 13
f 53/53/119 43/52/120 67/55/147
f 67/55/147 43/52/120 57/54/148
s 14
f 54/161/121 55/160/122 68/163/149
f 68/163/149 55/160/122 69/162/150
s 15
f 55/63/123 56/62/124 69/65/151
f 69/65/151 56/62/124 70/64/152
s 16
f 56/123/125 54/122/126 70/125/153
f 70/125/153 54/122/126 68/124/154
s 17
f 57/140/155 58/141/156 67/150/157
f 58/141/156 59/142/158 67/150/157
f 60/143/159 61/144/160 59/142/158
f 61/144/160 62/145/161 59/142/158
f 59/142/158 62/145/161 67/150/157
f 63/146/162 64/147/163 62/145/161
f 66/149/164 67/150/157 65/148/165
f 62/145/161 64/147/163 69/152/166
f 69/152/166 70/153/167 62/145/161
f 62/145/161 70/153/167 67/150/157
f 64/147/163 65/148/165 69/152/166
f 69/152/166 65/148/165 68/151/168
f 65/148/165 67/150/157 68/151/168
f 70/153/167 68/151/168 67/150/157
